<svg version="1.1" id="Layer_1" xmlns="http://www.w3.org/2000/svg" xmlns:xlink="http://www.w3.org/1999/xlink" x="0px" y="0px"
	 width="100%" viewBox="0 0 960 960" enable-background="new 0 0 960 960" xml:space="preserve">
<path fill="#000000" opacity="1.000000" stroke="none"
	d="
M961.000000,727.571533
	C933.553772,740.463623 906.102966,752.917297 878.662476,765.393555
	C852.435059,777.318359 826.220093,789.270386 799.991638,801.192810
	C798.687500,801.785583 797.470154,802.934570 794.858154,801.713806
	C806.076050,778.621094 817.285034,755.546753 828.890137,731.656982
	C731.510925,731.656982 634.919617,731.656982 538.128052,731.656982
	C538.907288,733.781006 540.648132,734.267822 542.005554,735.020630
	C577.838745,754.891907 613.081970,775.829529 649.377747,794.857605
	C661.628052,801.279785 674.663818,805.901550 688.655334,808.252625
	C688.747498,806.601501 687.385620,806.014282 686.647522,805.164429
	C675.926758,792.821045 676.421021,776.719360 687.860596,767.334412
	C699.335205,757.920837 718.226746,760.739929 727.415955,773.236938
	C742.016724,793.093811 732.265686,817.714539 707.544067,823.152100
	C695.326721,825.839294 683.387939,824.029907 671.649902,820.238281
	C668.876465,819.342468 666.087463,818.495239 662.205750,817.281799
	C667.000793,824.428345 673.097839,828.201904 679.104858,831.953369
	C687.196533,837.006592 696.148804,840.276855 705.049011,843.585938
	C707.764099,844.595337 710.074829,846.054016 712.165405,848.054871
	C720.230347,855.773438 728.389160,863.393860 736.464050,871.102173
	C737.760254,872.339600 739.329895,873.416138 739.924255,875.324585
	C739.008545,876.954285 737.625671,876.319519 736.456116,875.911926
	C720.894104,870.487915 705.352173,865.006592 689.791565,859.578613
	C687.934082,858.930664 686.628052,857.792175 685.816528,856.041321
	C683.745911,851.574097 680.013184,849.013611 675.853638,846.640015
	C669.202820,842.844482 662.803345,838.606567 656.318481,834.522827
	C651.440308,831.450867 648.636230,826.622620 646.335266,821.649963
	C641.533447,811.272400 634.118225,804.249573 623.887512,798.687683
	C589.063110,779.755737 554.736084,759.907471 520.267944,740.323242
	C517.219238,738.591125 514.768005,738.167419 512.488647,741.268982
	C512.103394,741.793091 511.527191,742.190979 510.998108,742.593140
	C503.862946,748.016724 503.934784,747.976135 508.006378,755.824585
	C513.629028,766.662842 522.088562,774.713135 532.396545,780.961548
	C539.001282,784.965088 543.624939,791.159424 549.952332,795.906799
	C539.975281,798.975159 517.765564,790.729553 500.904053,770.684570
	C499.408905,771.565491 500.052185,773.060913 500.048431,774.214417
	C499.980469,795.046570 500.050629,815.879456 499.912323,836.710938
	C499.888947,840.232178 501.305634,841.660095 504.559601,842.511230
	C530.727539,849.356689 546.088928,867.746643 548.114868,894.424561
	C550.137085,921.052612 527.451477,947.892700 500.859833,951.400146
	C467.765472,955.765320 440.962250,933.387695 436.850372,901.913879
	C433.771088,878.343872 449.491333,853.426025 473.117737,844.556885
	C476.906403,843.134705 482.467987,844.058167 484.172089,839.980835
	C485.667389,836.403015 484.785461,831.794922 484.799805,827.641357
	C484.857819,810.808594 484.856720,793.975647 484.876801,777.142761
	C484.878967,775.333679 484.877075,773.524536 484.877075,770.140076
	C473.853912,783.587463 461.010315,791.656555 444.933289,794.799622
	C448.962067,788.984802 451.183685,782.132507 457.040131,777.698792
	C466.669128,770.409119 473.774933,761.078979 478.894806,750.190063
	C479.248322,749.438293 479.598145,748.677795 479.856598,747.890808
	C480.005188,747.438293 479.966644,746.924255 480.038025,746.165405
	C477.485199,744.488586 474.755432,742.894470 472.588562,740.578918
	C470.419312,738.260864 468.402557,739.701843 466.319885,740.842712
	C438.854462,755.887573 411.379974,770.915833 383.901794,785.937439
	C377.763519,789.293030 371.837311,793.182434 365.398682,795.809570
	C354.809143,800.130432 349.520142,808.447571 346.112305,818.581055
	C342.242981,830.086914 342.684937,841.483337 347.131226,852.739075
	C348.551270,856.333801 350.617218,859.554443 353.170135,862.458679
	C360.808838,871.148743 372.408356,872.576477 379.706268,865.725769
	C387.148438,858.739441 387.409851,844.697266 380.279419,837.049805
	C379.302887,836.002441 378.368317,835.241089 376.831207,835.719971
	C373.679749,836.701721 371.879089,835.237671 371.603912,832.232910
	C371.316711,829.096985 373.186157,827.211426 376.216614,826.739868
	C380.191132,826.121338 383.810364,827.058716 386.959503,829.673706
	C396.413452,837.523926 400.200775,847.590637 397.574982,859.513123
	C394.840393,871.929443 387.199097,880.369446 374.569763,883.193970
	C358.747467,886.732422 347.588776,879.068665 338.766541,866.940674
	C332.413971,858.207642 329.686035,848.140564 328.803284,837.498291
	C328.709198,836.363586 328.498260,835.238647 328.247162,833.429138
	C319.289673,836.718384 311.754486,841.554321 306.493744,848.962402
	C302.667755,854.349976 297.951660,857.229858 291.861511,859.223450
	C279.367493,863.313232 267.087219,868.054199 254.698074,872.468506
	C253.042770,873.058350 251.412354,874.121277 248.629532,873.251892
	C258.859863,861.416870 270.981110,852.184143 282.090546,841.642090
	C280.413605,839.322083 277.937958,839.107910 275.941864,838.166748
	C260.371918,830.825439 249.891830,819.240906 248.380173,801.740173
	C246.687149,782.139465 258.889069,764.272095 278.243408,762.188904
	C288.543488,761.080200 299.671814,766.832397 303.126801,775.268372
	C305.750031,781.673462 304.371613,787.438293 299.434113,789.988586
	C297.328308,787.101807 295.791901,783.777283 292.855408,781.409607
	C283.919861,774.205078 271.502777,776.307190 265.766510,786.263367
	C260.496307,795.410400 261.855927,804.172974 267.753845,812.469910
	C274.911224,822.538574 285.322662,826.867126 297.069092,828.660522
	C304.677246,829.822083 312.266510,829.873047 319.948578,828.860840
	C328.322601,827.757507 329.082367,827.452576 330.745361,819.292480
	C331.099487,817.554932 332.235474,815.924805 331.567719,813.674805
	C327.027527,814.575195 322.504303,815.475525 317.979706,816.368835
	C308.624725,818.215820 299.778107,816.353638 291.200623,812.645508
	C283.884369,809.482666 283.196716,807.651062 286.393341,799.740356
	C286.935760,799.705750 287.680267,799.429016 288.200195,799.659241
	C296.255493,803.226746 302.216644,799.549194 307.945740,794.307495
	C316.052979,786.889832 322.376129,778.224548 327.167358,768.370667
	C328.590302,765.444153 329.617157,762.237000 332.078430,759.734009
	C337.822083,768.703918 336.710083,785.262268 325.679749,798.399414
	C367.980743,778.301880 408.356628,754.598755 450.232635,732.397156
	C447.770142,730.667419 446.072662,731.095703 444.490753,731.095642
	C382.325897,731.093140 320.160950,731.167236 257.996338,731.054138
	C253.199951,731.045410 249.928665,732.633545 246.841370,736.178162
	C229.658249,755.906250 211.710220,774.930298 193.334534,793.551880
	C191.654800,795.254089 189.889053,796.805542 187.369949,796.818054
	C178.091171,796.864197 168.812012,796.836426 159.533005,796.836426
	C159.239563,796.223755 158.946136,795.611084 158.652710,794.998474
	C178.187912,774.993591 197.723129,754.988647 217.403214,734.835449
	C210.884766,732.183533 207.229263,732.889771 203.148010,737.184753
	C184.779495,756.515259 165.749207,775.187317 146.729065,793.869568
	C145.162567,795.408264 143.626938,796.898193 141.205353,796.872437
	C133.043243,796.785706 124.880783,796.733521 116.718666,796.647522
	C115.887177,796.638794 115.043053,796.520264 114.131264,794.659668
	C133.697296,774.911316 153.528015,754.895813 173.894226,734.339905
	C167.141205,732.902710 162.147049,732.881348 157.191147,738.135010
	C139.586990,756.796753 121.432182,774.938232 103.578598,793.366516
	C101.065521,795.960510 98.411980,797.070435 94.777588,797.032410
	C84.791420,796.927673 74.809128,795.950195 64.814339,796.774231
	C64.001366,796.841248 63.134968,796.732849 62.225269,795.153137
	C84.182693,775.750549 105.554482,755.455383 126.820511,733.882996
	C119.028084,732.963440 113.190796,733.112488 107.473816,738.909729
	C89.115471,757.525574 70.033768,775.428040 51.229939,793.604431
	C49.915359,794.875061 48.689880,796.524536 46.728775,796.539917
	C35.968353,796.624390 25.206923,796.580200 14.447287,796.580200
	C13.752161,793.679016 15.833403,792.688049 17.149473,791.382019
	C38.084675,770.607117 59.055889,749.868530 80.007950,729.110596
	C85.296608,723.870850 85.303314,722.178467 80.079041,717.005554
	C59.238506,696.369751 38.384319,675.747742 17.551439,655.104248
	C16.423096,653.986206 14.823359,653.089172 15.071647,650.588196
	C20.703522,650.588196 26.429449,651.368958 31.858631,650.431335
	C44.532238,648.242737 53.194286,653.255615 61.781754,662.368286
	C77.188805,678.717468 94.132858,693.607544 110.027519,709.514099
	C115.211708,714.702209 120.542892,713.708984 127.729568,712.871216
	C106.418030,691.133972 85.057503,671.214600 63.182438,651.940918
	C64.205254,649.915894 65.728416,650.573120 66.906258,650.556946
	C76.232018,650.428528 85.574631,650.981934 94.878235,650.037659
	C99.037376,649.615540 102.151611,650.981628 105.065331,654.000549
	C122.882835,672.461182 141.006577,690.629700 158.625290,709.276367
	C163.240845,714.161255 167.876755,714.172974 174.677689,712.481018
	C154.494339,692.016357 134.879807,672.128479 115.265282,652.240540
	C115.434166,651.776245 115.603058,651.311951 115.771942,650.847656
	C125.111549,650.905823 134.383316,649.287048 143.762772,650.519226
	C145.487366,650.745850 146.592667,652.199951 147.797333,653.341675
	C167.143372,671.676880 185.730362,690.772522 204.335037,709.849121
	C208.583878,714.205750 211.610611,714.900391 218.179901,711.848450
	C198.578613,691.818787 179.249054,672.066772 160.069992,652.468506
	C161.260529,650.228882 162.748276,650.690125 163.975327,650.668640
	C169.307236,650.575378 174.764618,651.288818 179.945496,650.385254
	C188.198746,648.945862 193.631241,652.152283 199.092682,657.989441
	C215.597107,675.629211 232.260574,693.121643 248.349731,711.142822
	C251.250244,714.391785 254.252060,715.802307 258.679260,715.792053
	C320.677673,715.648621 382.676514,715.686646 444.675201,715.641907
	C447.077362,715.640198 449.673401,716.227051 452.196991,713.971619
	C448.052948,709.852295 442.851074,707.626770 438.061646,704.867126
	C398.080933,681.829651 358.069092,658.846252 318.042114,635.889343
	C311.074341,631.893066 303.835754,628.418030 295.675262,627.771301
	C279.264099,626.470642 264.964722,636.040527 264.593262,653.348022
	C264.269897,668.415100 280.712555,687.038025 299.403564,676.506775
	C300.527649,675.873474 301.763519,675.438660 303.179443,674.808105
	C305.237396,678.254089 305.408386,681.935974 305.954803,685.456970
	C306.317596,687.794556 304.495178,688.941650 302.620087,689.907104
	C290.892395,695.945129 275.760773,693.916565 265.693451,685.102051
	C242.995148,665.228271 245.252960,629.641174 273.711853,616.076782
	C274.585449,615.660400 275.610352,615.355652 275.967499,613.781982
	C266.144073,603.406128 255.041824,593.897522 245.471191,582.384033
	C247.995850,580.950867 249.784042,581.862488 251.554184,582.592468
	C266.641846,588.815002 281.719116,595.062744 296.813965,601.267761
	C299.040771,602.183167 301.127655,603.343323 302.142059,605.553650
	C304.307251,610.271423 308.375671,612.649597 312.641266,615.076843
	C354.769379,639.048889 396.842499,663.117554 438.937164,687.148315
	C447.761902,692.186218 456.646912,697.119751 465.426697,702.234314
	C468.015778,703.742493 469.797699,703.921021 471.630829,701.078430
	C472.860992,699.170837 474.593506,697.294678 476.547638,696.204773
	C481.276947,693.566956 480.925598,690.513611 478.603271,686.354065
	C473.190735,676.659729 466.555939,668.360901 455.886200,664.094299
	C455.271179,663.848389 454.616913,663.579834 454.130341,663.151917
	C448.679352,658.357910 444.320923,652.475159 437.790497,648.015137
	C446.460968,645.684998 468.407196,651.810913 483.921204,669.637024
	C485.234406,668.883057 484.772278,667.578491 484.775360,666.519958
	C484.811737,654.020386 484.722687,641.520081 484.835480,629.021423
	C484.862762,625.998291 483.858551,624.298340 481.117859,622.762268
	C465.569519,614.048157 463.089478,595.505920 475.847046,582.812805
	C478.658386,580.015625 478.470795,578.095215 476.382904,575.213379
	C468.003967,563.648193 457.014984,555.116150 444.983887,547.766602
	C426.347565,536.382019 406.627502,527.684326 384.905151,524.229431
	C357.219849,519.826294 331.627045,525.407043 308.117493,540.690796
	C301.539001,544.967529 295.173401,549.484009 289.455658,554.890381
	C288.077362,556.193665 286.867584,558.042297 284.476379,557.775330
	C283.006775,555.652832 284.494019,553.891541 285.231750,552.180542
	C291.095428,538.580566 301.481873,528.661316 312.703400,519.670959
	C336.462555,500.635925 364.108246,491.434387 394.123596,488.654388
	C403.157532,487.817657 412.202026,487.094910 421.139954,485.826324
	C375.967560,475.051361 335.480011,483.728577 300.901031,515.994446
	C299.246216,513.323730 300.579498,511.754913 301.333801,510.203705
	C315.426849,481.221283 338.997772,464.332214 369.804688,456.797699
	C385.419067,452.978851 401.367584,451.974762 417.366943,451.679901
	C458.922821,450.913971 498.776550,442.963715 535.591309,422.958496
	C575.418518,401.316284 607.130066,371.539215 626.510437,329.876495
	C634.659058,312.359222 639.138306,293.852509 640.886963,274.611450
	C642.051147,261.801178 641.986389,249.032440 640.307495,236.115814
	C638.997620,243.084305 637.756409,250.066513 636.367004,257.019104
	C626.689819,305.443848 606.866516,348.491150 569.501709,382.076050
	C541.385864,407.347626 508.394928,423.189880 471.882935,432.326202
	C447.889984,438.329865 423.501678,441.262543 398.938873,443.396851
	C370.978424,445.826355 343.385071,450.205292 317.553009,461.945862
	C283.050171,477.627136 258.641968,503.635468 241.563660,537.007874
	C239.060364,541.899536 236.618637,546.822754 234.119736,551.716675
	C233.543045,552.846069 233.282471,554.321777 231.098145,554.540710
	C229.309097,550.593689 230.325424,546.319092 230.910751,542.521973
	C236.729630,504.774506 246.985580,468.576019 271.123932,437.939270
	C290.069702,413.892944 315.332001,399.508331 344.670471,391.678223
	C360.698334,387.400513 377.079010,386.007996 393.503479,384.630554
	C405.581604,383.617676 417.618835,382.199951 429.197205,377.134949
	C427.523193,377.134949 425.848602,377.105011 424.175293,377.139709
	C411.501251,377.402588 398.891266,376.051392 386.252716,375.632507
	C347.829803,374.358978 312.692169,384.070679 282.372864,408.513123
	C257.711578,428.394257 242.114960,454.802155 229.269012,483.135742
	C228.561264,484.696777 228.620529,486.890320 225.253021,487.500061
	C224.138229,482.870728 224.286789,478.090149 224.976593,473.569946
	C230.434860,437.801849 244.557693,406.327484 271.285095,381.155975
	C290.160461,363.379395 312.528442,352.090698 337.256073,345.049530
	C339.759094,344.336792 342.198578,343.401031 344.591400,342.278687
	C333.990662,341.694916 323.857544,344.013519 313.939667,347.241608
	C276.229309,359.515656 248.631638,384.205292 227.979813,417.443512
	C217.276337,434.670288 209.880249,453.421814 202.388870,472.123413
	C189.187943,505.078278 171.446899,534.899658 143.345108,557.448486
	C129.992661,568.162476 114.823082,575.177734 97.581444,577.022705
	C95.428391,577.253052 92.938866,578.165588 91.095886,575.456726
	C92.753670,573.207703 95.338356,572.285095 97.544197,570.991882
	C125.332428,554.700562 143.078079,530.202820 155.505707,501.108917
	C164.882401,479.157471 170.002380,455.773895 178.878983,433.667542
	C193.930511,396.183167 217.516861,365.704651 252.563202,344.999725
	C273.230255,332.789886 295.857056,326.237671 319.868195,324.652863
	C324.336792,324.357910 328.794342,323.895172 333.989075,323.446655
	C329.983368,320.417328 325.679657,320.075531 321.647491,319.502747
	C293.176147,315.458344 267.125763,322.583801 242.893280,337.283264
	C221.220535,350.429993 204.077774,368.557190 188.104797,387.912201
	C186.758011,389.544159 186.768600,389.552887 184.251526,390.804535
	C182.535461,388.138245 184.057053,385.566895 184.791962,383.241516
	C195.672943,348.812714 212.963104,318.878418 244.801392,299.506317
	C266.368958,286.383453 289.881531,284.291382 314.265503,288.174866
	C331.245422,290.879120 346.575104,298.166199 361.933624,305.521545
	C351.943359,294.423645 339.900146,286.196747 326.225800,280.319611
	C288.002838,263.891663 251.353943,266.964783 217.157639,290.650513
	C195.469879,305.672302 182.298325,327.385376 173.326782,351.852264
	C166.898834,369.382324 162.994690,387.660370 157.223877,405.381958
	C145.825317,440.385803 127.708923,470.979919 98.009842,493.586334
	C78.461273,508.466309 56.584221,517.561218 31.507526,517.241760
	C29.425457,517.215271 27.108105,517.673889 25.381638,515.338989
	C26.892822,512.499817 30.000090,511.885895 32.515503,510.629059
	C50.323841,501.731079 65.897301,489.987457 78.893188,474.855255
	C95.139687,455.938049 105.689751,434.091003 112.791092,410.334076
	C118.983665,389.617310 123.150131,368.321198 130.861603,348.039886
	C143.621399,314.481262 163.821640,286.834656 194.899994,268.064728
	C218.660278,253.714569 244.637512,248.810471 272.162659,251.274948
	C291.109497,252.971344 309.001831,258.543854 326.514099,265.621552
	C327.215454,265.904999 327.885681,266.706299 329.221191,265.698212
	C320.758636,258.937164 311.839691,253.248367 301.896271,249.351562
	C253.243332,230.284653 209.574234,240.366272 169.723495,272.235291
	C160.309418,279.763794 152.218613,288.603729 144.620346,297.925751
	C143.534180,299.258331 142.876144,301.190063 140.749451,301.568237
	C139.073929,300.193207 139.711349,298.520935 140.149673,296.994263
	C147.399414,271.743866 159.994324,249.746353 180.141556,232.551834
	C200.749466,214.964157 225.153595,208.505814 251.692856,209.859009
	C280.383972,211.321915 306.227661,221.299835 329.587646,237.889175
	C350.460175,252.712021 366.338501,272.020538 379.822205,293.529846
	C384.926453,301.672211 389.294586,310.216125 393.984283,318.590790
	C389.514832,293.286133 377.451080,271.695129 361.258423,252.252869
	C343.886383,231.394547 322.689392,215.365631 297.402588,205.475464
	C245.666504,185.240494 196.120163,188.325714 150.865768,222.560364
	C124.883392,242.215866 108.481445,269.167755 97.475388,299.532928
	C90.145569,319.755585 86.290352,340.983704 79.563942,361.394409
	C72.057930,384.170776 60.870277,404.768799 44.857220,422.675995
	C40.356522,427.709015 35.383781,432.186829 29.364218,436.235382
	C27.931265,431.657715 30.152006,428.655212 31.508665,425.649170
	C37.752476,411.814423 43.026012,397.658539 47.129726,383.029236
	C52.085590,365.362152 54.960686,347.321259 57.734230,329.232819
	C62.706326,296.805817 72.142380,265.988129 90.894669,238.565063
	C112.635147,206.772049 142.442276,186.620239 179.478500,176.792648
	C219.189026,166.255402 258.042694,169.252655 295.925812,184.688049
	C319.297638,194.210831 339.018219,209.110031 355.917114,227.746384
	C360.812531,233.145096 365.780792,238.512924 370.079437,244.445541
	C361.474060,226.043579 350.245392,209.457977 334.767853,196.190308
	C310.113098,175.055710 281.576019,161.886703 249.252609,158.385864
	C199.464523,152.993484 153.885010,164.586838 114.067375,195.530014
	C86.538033,216.923706 69.076111,245.585938 57.534950,278.110962
	C51.448692,295.263123 47.917931,313.069305 44.129353,330.808228
	C43.332672,334.538361 43.321354,334.535950 41.277878,337.025116
	C37.624416,334.805725 38.360394,330.767944 38.005398,327.663177
	C33.611610,289.235840 38.114948,252.227585 56.553150,217.631683
	C72.362518,187.968292 95.975182,166.236465 125.655983,151.080597
	C154.959900,136.117142 186.208450,128.355453 219.105835,126.392654
	C252.054321,124.426819 283.639679,129.108109 313.169373,144.104462
	C356.097260,165.904968 383.150391,201.020889 397.271515,246.608521
	C401.864685,261.436768 404.569733,276.638458 406.383789,292.023560
	C406.573029,293.628448 406.982788,295.207336 407.528748,298.032837
	C408.621765,273.297211 407.034393,250.140259 399.265350,227.801132
	C385.288208,187.610992 358.501709,158.452850 321.348053,138.472534
	C288.548798,120.833908 253.356171,113.670654 216.310715,115.465683
	C201.851593,116.166298 187.489777,118.095505 173.253006,120.798302
	C170.969421,121.231827 168.723404,121.523621 166.219772,121.227066
	C166.282547,118.459373 168.424561,118.168587 169.861267,117.389908
	C183.819733,109.824608 198.972885,105.964958 214.529816,103.792175
	C243.615524,99.729881 272.281555,101.606003 300.385529,110.639832
	C345.349091,125.093040 380.246857,152.046768 402.777039,193.861511
	C413.450989,213.671753 419.426605,235.082504 421.450378,257.622467
	C423.098145,275.974915 421.998840,294.196167 420.522919,312.470154
	C419.881073,320.417572 419.795105,328.446381 421.842010,336.304626
	C426.938477,355.870605 444.440460,364.657013 464.513641,362.269287
	C491.192200,359.095917 510.867828,344.148315 527.231812,323.968048
	C539.121887,309.304993 547.275208,292.573944 553.877808,275.028839
	C563.494446,249.474731 571.569153,223.343765 582.853027,198.412323
	C594.290039,173.142395 608.412231,149.661011 629.050903,130.795410
	C644.495667,116.677544 661.546082,105.257210 683.326538,103.342369
	C697.253235,102.117981 709.099426,107.294632 720.136658,114.970955
	C722.594177,116.680115 724.873657,117.305359 727.934570,117.146805
	C738.243774,116.612770 748.222778,118.390160 757.379883,123.384666
	C765.517395,127.823112 770.788147,134.428299 772.183838,143.864639
	C769.889771,144.778336 768.622986,143.355621 767.247925,142.656631
	C756.907410,137.400406 746.215271,137.058578 735.178528,139.969849
	C729.512390,141.464462 725.470215,144.599686 722.763977,149.887726
	C718.212341,158.781708 713.128235,167.419235 709.726685,176.852539
	C708.436462,180.430496 706.729004,182.417603 702.426758,179.840210
	C701.541931,188.576126 703.684875,196.135849 706.468933,203.599747
	C711.897461,218.153503 721.146729,230.444931 729.916687,242.996399
	C744.694458,264.146301 755.693420,287.046600 760.619690,312.413391
	C771.941162,370.710480 757.876221,422.290985 718.238647,466.645020
	C687.855896,500.643127 648.672180,518.921143 605.146912,529.282898
	C585.420349,533.979004 565.319824,537.243958 546.466064,545.226807
	C531.243408,551.672180 518.513733,561.195618 508.385498,574.301392
	C505.999603,577.388733 505.940155,579.270996 508.908203,582.128235
	C522.381897,595.098877 519.887634,614.050903 503.702271,623.178650
	C501.920624,624.183350 500.161469,624.912354 500.170166,627.443115
	C500.218201,641.408264 500.193115,655.373596 500.193115,670.768311
	C513.397583,655.497559 529.493713,648.952026 547.881470,647.249512
	C548.130188,648.058838 548.391602,648.536682 548.290283,648.632935
	C541.669495,654.925354 535.185181,661.694397 527.146851,665.897522
	C516.036438,671.706909 509.938019,681.143494 504.318939,692.043945
	C508.758972,695.420898 513.338196,698.384583 516.527161,702.990601
	C517.947205,705.041687 520.232178,703.060913 521.889893,702.136292
	C538.913208,692.642151 555.886047,683.057556 572.911316,673.567017
	C594.155457,661.724609 615.321106,649.733459 636.754944,638.243530
	C645.695190,633.450928 651.110596,626.930725 650.758362,616.625549
	C650.400696,606.160522 644.247803,599.355774 635.302124,595.071411
	C625.985046,590.609253 616.847900,591.325989 608.501160,597.765686
	C601.609802,603.082581 600.876221,612.529358 606.740845,618.911072
	C608.981812,621.349609 611.422546,622.653931 614.644287,620.630310
	C616.711731,619.331665 618.700439,619.031616 620.248535,621.449219
	C621.851196,623.952026 621.462769,626.261780 619.307129,628.166443
	C614.980042,631.989746 609.870728,632.133179 604.716614,630.596375
	C591.147339,626.550537 585.235840,611.059448 591.762085,597.019714
	C598.964050,581.526184 617.026733,574.257996 635.023315,579.242676
	C650.938171,583.650879 666.538330,600.218811 665.393860,618.080750
	C665.363831,618.549988 665.590698,619.035767 665.886047,620.354370
	C672.459045,616.172546 680.126282,614.207825 684.168701,607.045471
	C685.916687,603.948364 688.435852,602.166077 691.663269,600.869934
	C706.032654,595.099243 720.336121,589.164551 734.690063,583.355042
	C736.299683,582.703613 737.877930,581.476624 740.755615,582.546448
	C729.975159,595.511230 718.048828,606.865356 706.293518,618.631836
	C708.889587,621.755554 712.087585,623.251160 714.874634,625.271423
	C728.986694,635.500854 737.986755,648.751526 738.208008,666.680542
	C738.387329,681.216370 729.021179,693.398926 715.128174,697.660217
	C701.948792,701.702576 687.091248,696.422607 679.064148,684.761963
	C677.006287,681.772644 675.162048,678.636292 673.126831,675.420898
	C667.051453,677.629578 663.137878,682.809082 657.204529,685.584961
	C657.989929,660.727417 671.180115,644.271851 690.893616,631.690002
	C692.206055,631.921814 692.791321,633.515564 693.933105,634.432922
	C697.471191,637.275574 697.197815,639.588379 693.860718,642.851013
	C682.824707,653.640625 681.488708,665.759949 689.644104,676.312500
	C695.728333,684.185120 704.936829,687.059326 712.584045,683.472534
	C721.255981,679.405273 725.470398,669.896057 723.125732,659.955383
	C720.899902,650.518738 715.357178,643.084656 708.868225,636.263062
	C704.965881,632.160645 700.803711,628.309509 696.175110,624.990295
	C694.238831,623.601746 692.629883,623.197144 690.303284,624.543701
	C641.581543,652.741394 592.668457,680.601318 543.304199,707.665039
	C540.134460,709.402893 536.375793,710.771729 534.254028,715.206360
	C632.378418,715.206360 729.891357,715.206360 828.797913,715.206360
	C817.734314,693.778687 806.987915,672.965332 796.293152,652.252075
	C798.921204,650.183105 800.453613,651.738098 801.983521,652.412292
	C853.496399,675.108459 904.993103,697.841431 956.499268,720.552673
	C957.712524,721.087585 959.008240,721.435669 960.632690,721.935425
	C961.000000,723.714355 961.000000,725.428711 961.000000,727.571533
M696.309692,259.284485
	C700.588928,268.494659 704.958435,277.659454 708.569885,287.169586
	C719.057251,314.785919 722.448425,342.871918 714.533569,371.779205
	C702.869324,414.380615 675.214539,444.111298 637.879456,465.497162
	C598.663086,487.960602 555.385620,496.836548 510.977539,501.251953
	C488.631683,503.473755 466.182678,504.782867 444.007050,508.491211
	C434.601776,510.063965 425.087830,511.461517 416.158234,515.583252
	C422.199860,515.583252 428.012604,515.920654 433.775085,515.525391
	C459.834167,513.738159 485.881134,511.772430 511.928375,509.816193
	C538.153931,507.846497 564.325562,505.694458 589.938660,499.022308
	C625.927124,489.647430 659.275940,474.930176 686.887451,449.609833
	C728.050293,411.862610 743.801147,365.576935 730.954407,310.502075
	C725.845154,288.598114 714.889648,269.351135 703.395630,250.348679
	C693.048950,233.242905 682.494995,216.215668 677.680298,196.468597
	C676.937988,193.424194 676.435730,190.321243 675.822388,187.245361
	C674.912964,193.551544 675.801270,199.653229 676.861267,205.707703
	C680.142212,224.447540 688.311768,241.441055 696.309692,259.284485
M671.934570,325.180084
	C668.786072,343.723480 663.225525,361.451935 653.586304,377.699066
	C633.721252,411.181946 604.341003,433.190857 568.649536,447.366425
	C528.539124,463.297058 486.488922,467.843170 443.759888,468.194946
	C440.006989,468.225830 436.253662,468.199066 432.500519,468.199066
	C441.264832,471.096252 450.167419,472.099976 459.119904,472.931427
	C492.521027,476.033447 525.644104,474.903046 558.291077,466.580688
	C593.393433,457.632385 624.597168,441.571594 649.895569,415.203064
	C671.548889,392.633667 683.866577,365.499908 686.503662,334.445618
	C689.322205,301.254730 680.636230,269.835999 669.458679,238.956238
	C673.093933,267.335815 676.910583,295.701294 671.934570,325.180084
M631.451233,164.920059
	C626.961487,170.945618 623.179260,177.398239 619.623596,184.012894
	C608.978027,203.817276 603.187256,225.408920 596.295044,246.607132
	C588.028625,272.031799 578.234924,296.708221 561.527954,318.077972
	C542.848022,341.971313 520.342224,361.018433 492.638123,373.685638
	C488.434662,375.607574 483.817566,376.675171 479.335297,379.973480
	C482.612549,379.426697 485.063538,379.027496 487.510132,378.603088
	C488.163879,378.489685 488.806335,378.307281 489.450409,378.142578
	C529.763855,367.834961 560.469849,344.218323 583.730286,310.215698
	C600.532410,285.654053 608.956726,257.899078 614.633484,229.138885
	C619.761414,203.159271 626.845886,177.991486 642.296631,155.926025
	C645.869324,150.823776 649.623352,145.872192 653.586121,141.057343
	C645.418579,147.975708 638.026855,155.582657 631.451233,164.920059
M400.704712,420.952179
	C412.858673,420.696625 424.970612,419.798004 437.082703,418.784485
	C463.718872,416.555573 489.387268,410.765656 513.221130,398.264374
	C522.729431,393.277069 531.860535,387.654327 539.658264,380.123108
	C522.012573,389.959930 503.722412,398.125793 484.163574,403.374237
	C458.816406,410.175903 432.926605,411.362671 406.894775,411.293274
	C386.962433,411.240143 367.428223,413.860687 348.226715,419.325348
	C331.262177,424.153412 315.775330,431.855682 301.452698,442.114471
	C304.805634,441.308136 308.004944,440.119537 311.116699,438.734314
	C320.890411,434.383392 331.075256,431.257324 341.438049,428.753754
	C360.594818,424.125610 380.130798,422.191559 400.704712,420.952179
M695.480957,779.992432
	C691.496277,785.527527 691.492615,789.493469 695.466797,795.474121
	C699.622681,801.728149 705.693909,804.923828 711.239075,803.661377
	C712.333923,803.412170 713.415283,802.872803 714.365479,802.255737
	C720.611389,798.199402 721.795898,789.600464 717.073914,782.952698
	C711.662720,775.334656 703.189697,773.936157 695.480957,779.992432
M464.170929,892.013611
	C465.452545,894.367188 467.186340,896.178528 470.102844,895.518372
	C472.816467,894.904175 474.189636,892.775940 474.732849,890.182068
	C475.138275,888.246338 475.634186,886.246277 475.536285,884.302734
	C475.070526,875.057129 478.190125,867.380249 485.047516,861.169067
	C485.798523,860.488892 487.141235,859.884277 486.392090,858.406006
	C475.840515,855.177612 459.854614,878.292969 464.170929,892.013611
M466.378326,861.894836
	C469.810516,857.363586 474.516571,854.134460 479.221039,849.896179
	C459.268036,855.068848 445.433014,875.884583 448.430054,895.377991
	C448.812195,897.863464 449.388947,900.470093 452.901306,902.158142
	C451.366699,886.473145 456.502686,873.712952 466.378326,861.894836
M686.704529,138.912460
	C695.035339,138.550980 700.549500,133.097672 699.325012,126.431343
	C698.187012,120.236420 692.792908,115.889671 686.567017,116.150604
	C681.426025,116.366074 676.924622,120.680016 676.350159,125.942001
	C675.624084,132.592926 679.032227,137.200562 686.704529,138.912460
M334.004883,370.311493
	C348.178528,366.078613 363.029022,366.692444 378.579529,364.796509
	C364.694275,357.990173 334.219360,361.301819 325.295471,372.367706
	C328.112335,371.714172 330.666565,371.121613 334.004883,370.311493
M480.984894,593.575806
	C478.149719,601.822144 479.385468,606.439392 486.016205,609.353638
	C484.031677,599.911743 485.782898,592.172363 495.310852,588.200073
	C490.585754,584.164246 485.335968,586.129944 480.984894,593.575806
M383.951660,342.438843
	C382.767181,342.650696 381.734558,343.374664 383.453674,343.985962
	C393.505707,347.560364 403.632629,350.924347 414.319183,354.558258
	C408.648895,346.944366 396.334686,342.081390 383.951660,342.438843
z"/>
<path fill="#000000" opacity="1.000000" stroke="none"
	d="
M573.259766,49.702473
	C582.778381,62.917244 595.502625,69.101418 607.001404,65.647423
	C600.361572,53.360756 598.037659,40.594357 603.861450,26.659851
	C611.712402,45.544228 626.647949,53.092934 646.710449,55.036919
	C642.952393,46.901440 637.607910,40.320862 638.115173,30.804552
	C656.835571,37.720592 674.069702,46.514168 691.970337,55.553467
	C690.126587,47.019630 684.960999,40.342407 682.423523,31.541058
	C704.999695,36.575123 719.773010,50.118168 731.757141,68.700134
	C733.982666,61.041718 731.778381,54.697834 729.908997,48.583069
	C730.595886,47.670227 731.305664,47.622696 731.878967,47.965504
	C750.188843,58.914124 758.829529,83.296867 750.218323,101.183594
	C746.875488,108.127136 741.031250,111.942619 733.998474,114.274315
	C730.635437,115.389313 727.613159,114.778679 724.516418,112.902885
	C715.690186,107.556473 706.877502,102.000137 696.743042,99.458870
	C675.409790,94.109428 656.292297,99.451782 638.800964,112.075233
	C630.981873,117.718246 623.390137,123.751038 614.013611,126.790047
	C592.671875,133.707092 572.508606,125.462570 562.055542,104.779488
	C549.202942,79.348495 551.641052,53.963081 563.601807,28.904322
	C563.962708,28.148129 564.440674,27.461378 566.222961,27.253170
	C567.719238,34.784176 568.787964,42.648342 573.259766,49.702473
z"/>
<path fill="#000000" opacity="1.000000" stroke="none"
	d="
M736.889038,152.192871
	C741.964111,161.732422 749.490417,168.967178 755.731750,177.174347
	C761.147766,184.296265 765.632080,191.702972 765.404663,201.198212
	C765.153503,211.685837 760.120178,219.645081 751.015442,223.019348
	C741.612732,226.504074 730.488647,223.731674 724.124695,216.205093
	C715.119263,205.554535 714.577820,193.239563 717.228699,180.326859
	C719.424194,169.632050 723.739075,159.722885 728.431885,149.947815
	C729.676086,147.356110 731.237915,145.396667 734.774231,146.035416
	C735.855652,147.749954 735.149719,150.239304 736.889038,152.192871
z"/>
<path fill="#000000" opacity="1.000000" stroke="none"
	d="
M594.357056,832.409790
	C599.927307,826.757568 606.205994,823.737793 613.919189,824.908447
	C619.749573,825.793335 622.219788,830.109253 619.640625,834.245544
	C618.344116,836.325012 617.113220,836.752014 614.747742,835.590210
	C609.906372,833.212280 606.865784,834.232727 603.664429,838.688232
	C599.273010,844.800049 599.013184,852.889832 603.000183,859.367798
	C607.367004,866.462830 616.790039,870.754150 624.900208,869.445679
	C635.618591,867.716309 642.949219,861.675781 646.237000,851.494080
	C647.813049,846.613525 649.930786,845.023132 654.677490,846.745850
	C656.068665,847.250732 657.596252,847.434875 659.079590,847.618469
	C661.458740,847.913086 661.983948,849.157654 661.686584,851.430481
	C659.850769,865.460510 645.851929,880.186584 631.256165,883.294739
	C614.887207,886.780518 600.486816,881.043396 592.291016,867.770935
	C585.446472,856.686707 586.115967,843.838135 594.357056,832.409790
z"/>
<path fill="#000000" opacity="1.000000" stroke="none"
	d="
M357.229095,577.832214
	C371.917694,575.991150 383.967316,579.690552 391.296631,592.845825
	C398.629578,606.007507 394.514404,626.809509 374.660431,629.941284
	C367.292664,631.103577 359.990173,627.040833 358.282379,620.845764
	C357.504639,618.024475 358.120483,615.916077 360.751831,614.548706
	C363.297028,613.226257 365.318207,613.587158 367.315887,615.940063
	C371.261108,620.586731 375.138885,620.063965 378.638214,614.717834
	C381.652863,610.112244 381.720795,603.312500 378.189606,598.707520
	C373.940521,593.166321 368.049164,590.443970 361.072693,591.655151
	C353.271820,593.009399 347.203949,597.116638 343.892792,604.649170
	C343.300323,605.997009 342.611115,607.302368 341.775421,609.020325
	C338.331116,607.804932 335.120117,606.587708 331.853241,605.545654
	C329.205719,604.701050 329.809265,602.953308 330.418243,601.153625
	C334.753235,588.343079 343.784546,580.855469 357.229095,577.832214
z"/>
<path fill="#000000" opacity="1.000000" stroke="none"
	d="
M318.762543,683.210449
	C314.790283,677.846313 311.065399,672.742493 307.226837,667.725769
	C303.677856,663.087463 299.119629,659.714111 293.338074,658.651367
	C289.923126,658.023621 289.722534,656.011414 289.575714,653.336182
	C289.433441,650.744019 289.806976,649.251587 292.760651,648.210999
	C309.358704,642.363647 323.962341,652.367371 326.071472,671.558411
	C326.754639,677.774414 326.546326,684.061768 324.535706,690.551697
	C321.307312,688.934998 321.047089,685.470764 318.762543,683.210449
z"/>
<path fill="#000000" opacity="1.000000" stroke="none"
	d="
M689.490784,133.904022
	C684.710144,134.731735 681.893555,132.552551 681.177307,128.529282
	C680.574646,125.143959 682.648132,122.388794 685.890259,121.235207
	C689.453003,119.967575 692.127258,121.918015 693.591003,124.944191
	C695.559937,129.014847 693.637024,131.881927 689.490784,133.904022
z"/>
</svg>
